<?xml version="1.0" encoding="utf-8"?>
<!-- Svg Vector Icons : http://www.onlinewebfonts.com/icon -->
<!DOCTYPE svg PUBLIC "-//W3C//DTD SVG 1.1//EN" "http://www.w3.org/Graphics/SVG/1.1/DTD/svg11.dtd">
<svg version="1.1" xmlns="http://www.w3.org/2000/svg" xmlns:xlink="http://www.w3.org/1999/xlink" x="0px" y="0px" viewBox="0 0 1000 1000" enable-background="new 0 0 1000 1000" xml:space="preserve">
<metadata> Svg Vector Icons : http://www.onlinewebfonts.com/icon </metadata>
<g><path d="M242.3,990.3c-64.5,0-116.9-51.4-116.9-116V301.9c0-19.4,15.9-35.1,35.2-35.1c19.4,0,35.2,15.7,35.2,35.1v572.4c0,25.8,21,45.5,46.5,45.5h514.3c27,0,48-19.7,48-45.5V301.9c0-19.4,15.1-35.1,34.5-35.1c19.4,0,34.5,15.7,34.5,35.1v572.4c0,64.5-52.5,116-116.9,116H242.3L242.3,990.3z"/><path d="M954.9,149.2H687.6V44.8c0-19.4-16.3-35-35.6-35H348.1c-19.4,0-35.3,15.7-35.3,35v104.4H45.1C25.7,149.2,10,165,10,184.4c0,19.4,15.7,35.2,35.1,35.2h909.9c19.4,0,35.1-15.9,35.1-35.2C990,165,974.3,149.2,954.9,149.2L954.9,149.2z M617.1,149.2H383.2V78.7h233.9V149.2L617.1,149.2z"/><path d="M429.7,745.8V395.4c0-19.4-15.9-35.1-35.2-35.1c-19.4,0-35.2,15.7-35.2,35.1v350.4c0,19.4,15.9,35.1,35.2,35.1C413.8,780.8,429.7,765.1,429.7,745.8L429.7,745.8z"/><path d="M639.6,745.8V395.4c0-19.4-15.1-35.1-34.5-35.1c-19.4,0-34.5,15.7-34.5,35.1v350.4c0,19.4,15.1,35.1,34.5,35.1C624.5,780.8,639.6,765.1,639.6,745.8L639.6,745.8z"/></g>
</svg>